<svg width="42" height="42" fill="none" xmlns="http://www.w3.org/2000/svg"><path fill-rule="evenodd" clip-rule="evenodd" d="M17.869.174c-2.206.358-3.976.93-6.107 1.974-13.015 6.375-15.807 23.678-5.46 33.838 2.331 2.29 4.979 3.91 8.065 4.937 8.215 2.733 17.27.154 22.753-6.482 3.219-3.896 4.877-8.466 4.88-13.447.006-10-6.918-18.505-16.78-20.613-1.902-.406-5.497-.507-7.351-.207zm6.166 12.97c.347.314.609.69.609.875 0 .218-1.075 1.4-3.309 3.638l-3.308 3.314 3.308 3.325c2.187 2.197 3.309 3.431 3.309 3.641 0 .324-1.075 1.42-1.394 1.42-.305 0-8.198-8.02-8.198-8.33 0-.266 8.005-8.435 8.266-8.435.059 0 .381.248.716.551z" fill="#061428"/></svg>