<svg width="42" height="42" xmlns="http://www.w3.org/2000/svg"><path fill-rule="evenodd" clip-rule="evenodd" d="M24.131 41.826c2.206-.358 3.976-.93 6.107-1.974 13.015-6.375 15.807-23.678 5.46-33.838-2.331-2.29-4.979-3.91-8.065-4.937C19.418-1.656 10.363.924 4.88 7.559 1.66 11.455.003 16.025 0 21.006c-.006 10 6.918 18.505 16.78 20.613 1.902.406 5.497.508 7.351.207zm-6.166-12.97c-.347-.314-.609-.69-.609-.875 0-.218 1.075-1.4 3.309-3.638l3.308-3.314-3.308-3.325c-2.187-2.197-3.309-3.431-3.309-3.641 0-.324 1.075-1.42 1.394-1.42.305 0 8.198 8.02 8.198 8.33 0 .266-8.005 8.435-8.266 8.435-.059 0-.381-.248-.716-.552z"/></svg>