<svg width="50" height="50" xmlns="http://www.w3.org/2000/svg"><path d="M40.734 6.244a4.647 4.647 0 00-1.457.348h-.007c-.445.177-2.562 1.067-5.78 2.417l-11.535 4.858c-8.277 3.485-16.413 6.916-16.413 6.916l.097-.038s-.56.185-1.147.586c-.362.23-.673.532-.915.886-.288.422-.52 1.067-.433 1.735.14 1.128.872 1.804 1.397 2.178.53.378 1.037.554 1.037.554h.013l7.63 2.57c.341 1.1 2.324 7.618 2.8 9.12.282.896.556 1.457.898 1.885.165.22.36.402.592.549.121.07.25.126.384.165l-.078-.018c.024.006.042.025.06.03.062.018.104.024.184.037 1.208.366 2.178-.384 2.178-.384l.055-.044 4.505-4.102 7.55 5.792.171.074c1.574.69 3.167.306 4.01-.372.848-.683 1.178-1.556 1.178-1.556l.055-.141L43.597 10.4c.166-.738.208-1.428.025-2.098a2.823 2.823 0 00-1.22-1.636 2.925 2.925 0 00-1.668-.422zm-.157 3.203c-.007.098.012.087-.032.276v.018l-5.78 29.578c-.024.042-.066.134-.182.226-.122.097-.219.158-.727-.044l-9.234-7.08-5.578 5.085 1.172-7.484 15.087-14.063c.622-.578.414-.7.414-.7.044-.709-.939-.207-.939-.207L15.753 26.837l-.006-.03-9.119-3.071v-.006l-.023-.005a.417.417 0 00.047-.019l.05-.025.048-.017s8.142-3.431 16.419-6.916c4.143-1.745 8.319-3.503 11.53-4.859a1262.61 1262.61 0 015.718-2.39c.128-.05.067-.05.16-.05v-.002z"/></svg>