<svg width="50" height="50" xmlns="http://www.w3.org/2000/svg"><path d="M23.747.008c-4.013.048-12.64.708-17.464 5.134-3.59 3.556-4.842 8.814-4.99 15.316-.121 6.478-.268 18.644 11.459 21.956v5.045s-.074 2.02 1.26 2.433c1.644.52 2.58-1.033 4.143-2.701l2.914-3.296c8.023.667 14.168-.87 14.876-1.098 1.628-.52 10.799-1.692 12.297-13.86 1.538-12.565-.748-20.482-4.875-24.064h-.025C42.097 3.727 37.092.08 25.911.04c0 0-.83-.056-2.164-.033v.002zm.137 3.533c1.14-.008 1.832.04 1.832.04 9.464.025 13.98 2.874 15.047 3.833 3.474 2.978 5.265 10.116 3.954 20.606-1.245 10.172-8.683 10.816-10.06 11.255-.585.188-5.998 1.522-12.816 1.083 0 0-5.079 6.128-6.666 7.706-.252.277-.545.358-.733.317-.268-.065-.35-.398-.334-.855l.048-8.373c-9.945-2.75-9.36-13.127-9.253-18.547.122-5.42 1.14-9.855 4.167-12.858 4.077-3.686 11.402-4.182 14.811-4.207h.003zm.75 5.418a.62.62 0 00-.626.62c0 .35.284.626.626.626a11.741 11.741 0 018.399 3.312c2.27 2.205 3.376 5.167 3.419 9.04 0 .343.276.627.626.627v-.025a.625.625 0 00.627-.618 13.46 13.46 0 00-3.777-9.92c-2.473-2.418-5.608-3.663-9.294-3.663v.001zm-8.236 1.433a1.957 1.957 0 00-1.278.252h-.032a9.81 9.81 0 00-2.385 1.96c-.57.66-.88 1.327-.96 1.97-.05.382-.016.765.098 1.13l.04.026a28.164 28.164 0 002.506 5.412 31.842 31.842 0 004.835 6.608l.056.081.09.066.056.066.065.056a32.293 32.293 0 006.625 4.858c2.75 1.496 4.419 2.204 5.42 2.498v.016c.294.089.561.13.83.13a3.832 3.832 0 002.295-.985 9.476 9.476 0 001.938-2.392v-.016c.48-.903.317-1.758-.375-2.336a28.857 28.857 0 00-4.477-3.214c-1.065-.578-2.148-.228-2.587.358l-.936 1.18c-.48.585-1.352.504-1.352.504l-.025.016c-6.501-1.661-8.236-8.244-8.236-8.244s-.08-.895.52-1.351l1.173-.944c.56-.456.951-1.538.35-2.605a28.108 28.108 0 00-3.207-4.476 1.781 1.781 0 00-1.05-.627l.003.003zm9.318 1.856c-.83 0-.83 1.254.008 1.254a7.852 7.852 0 015.517 2.392 7.281 7.281 0 011.871 5.354.63.63 0 00.627.62l.025.032a.632.632 0 00.627-.627c.056-2.482-.716-4.565-2.23-6.234-1.522-1.669-3.645-2.605-6.356-2.79h-.09zm1.026 3.37c-.855-.026-.887 1.252-.04 1.277 2.059.107 3.059 1.147 3.19 3.288a.622.622 0 00.619.61h.025a.63.63 0 00.601-.666c-.146-2.791-1.668-4.363-4.37-4.508h-.025v-.002z"/></svg>