<svg width="50" height="50" xmlns="http://www.w3.org/2000/svg"><g clip-path="url(#clip0_120_4)"><path fill-rule="evenodd" clip-rule="evenodd" d="M36.281 29.963c-.62-.31-3.664-1.807-4.231-2.015-.567-.206-.98-.308-1.394.313-.412.616-1.598 2.012-1.958 2.425-.363.414-.723.464-1.342.156-.619-.313-2.614-.965-4.979-3.073-1.84-1.642-3.083-3.669-3.444-4.29-.36-.619-.04-.954.271-1.262.28-.277.619-.723.93-1.084.31-.362.412-.62.618-1.035.208-.412.104-.773-.052-1.083-.154-.31-1.392-3.359-1.908-4.598-.502-1.207-1.013-1.042-1.392-1.063-.362-.016-.775-.02-1.188-.02-.412 0-1.083.154-1.65.774-.568.62-2.166 2.117-2.166 5.165 0 3.046 2.216 5.99 2.527 6.404.31.413 4.365 6.667 10.575 9.348a35.394 35.394 0 003.53 1.302c1.482.473 2.832.406 3.9.246 1.187-.177 3.662-1.498 4.178-2.944.515-1.446.515-2.685.36-2.943-.154-.259-.566-.413-1.187-.723h.002zM24.985 45.385h-.008c-3.689.001-7.31-.99-10.483-2.87l-.75-.446-7.796 2.046 2.081-7.6-.49-.78a20.544 20.544 0 01-3.147-10.958c.004-11.354 9.241-20.591 20.602-20.591 5.5 0 10.67 2.145 14.558 6.037a20.47 20.47 0 016.025 14.569c-.004 11.354-9.242 20.593-20.592 20.593zM42.51 7.267A24.615 24.615 0 0024.983 0C11.33 0 .213 11.115.208 24.775a24.716 24.716 0 003.307 12.386L0 50l13.133-3.447a24.752 24.752 0 0011.842 3.017h.01c13.655 0 24.771-11.115 24.775-24.777a24.628 24.628 0 00-7.25-17.527"/></g><defs><clipPath id="clip0_120_4"><path fill="#fff" d="M0 0h50v50H0z"/></clipPath></defs></svg>