<svg width="33" height="32" viewBox="0 0 33 32" fill="none" xmlns="http://www.w3.org/2000/svg">
<path d="M13.7171 18.6869C15.7399 20.7189 18.1875 22.2876 20.8878 23.283L24.541 20.4045C24.6493 20.3306 24.7777 20.2911 24.9092 20.2911C25.0408 20.2911 25.1692 20.3306 25.2775 20.4045L32.0606 24.7319C32.3181 24.8852 32.5361 25.0957 32.6973 25.3468C32.8586 25.5978 32.9586 25.8826 32.9897 26.1785C33.0207 26.4745 32.9818 26.7735 32.876 27.052C32.7703 27.3305 32.6006 27.5808 32.3803 27.7832L29.202 30.8921C28.7468 31.3374 28.1874 31.6642 27.5736 31.8434C26.9598 32.0225 26.3108 32.0484 25.6845 31.9188C19.4365 30.641 13.6775 27.6484 9.06588 23.283C4.55656 18.8743 1.43614 13.2645 0.0831274 7.13425C-0.0505323 6.52364 -0.0226356 5.8892 0.164114 5.29241C0.350863 4.69562 0.690132 4.15672 1.14904 3.72793L4.44369 0.580693C4.64757 0.373232 4.8962 0.214131 5.17098 0.115302C5.44575 0.0164742 5.73955 -0.01952 6.03036 0.010015C6.32117 0.03955 6.60147 0.133849 6.85027 0.285851C7.09906 0.437852 7.3099 0.643618 7.46701 0.887741L11.9826 7.51806C12.0605 7.62217 12.1025 7.74831 12.1025 7.87788C12.1025 8.00745 12.0605 8.13359 11.9826 8.2377L9.00774 11.7783C10.0403 14.3988 11.649 16.7587 13.7171 18.6869Z" fill="#061428"/>
</svg>
