<!-- ============================== -->
<!-- ====== USE ON HTML FILE ====== -->
<!-- ============================== -->
<!--
    <svg class="">
        <use xlink:href="../1.images/sprite.svg#cola"></use>
    </svg>
-->

<!-- =============================== -->
<!-- ====== USE ON SPRITE.svg ====== -->
<!-- =============================== -->
<!--
    <symbol id="" viewBox="">
        <path/>
    </symbol>
-->

<svg xmlns="http://www.w3.org/2000/svg">

    <symbol id="phone" viewBox="0 0 24 24">
      <path d="M10.1467 13.76C11.5383 15.1718 13.2222 16.2617 15.08 16.9533L17.5933 14.9533C17.6678 14.902 17.7562 14.8746 17.8467 14.8746C17.9371 14.8746 18.0255 14.902 18.1 14.9533L22.7667 17.96C22.9438 18.0665 23.0938 18.2128 23.2047 18.3872C23.3157 18.5616 23.3845 18.7595 23.4059 18.9651C23.4272 19.1707 23.4004 19.3785 23.3277 19.572C23.2549 19.7655 23.1382 19.9394 22.9867 20.08L20.8 22.24C20.4868 22.5494 20.102 22.7765 19.6797 22.901C19.2574 23.0254 18.8109 23.0434 18.38 22.9533C14.0815 22.0656 10.1194 19.9863 6.94666 16.9533C3.84432 13.8902 1.69751 9.99258 0.766663 5.73334C0.674707 5.3091 0.6939 4.8683 0.82238 4.45366C0.950861 4.03902 1.18427 3.66459 1.5 3.36668L3.76666 1.18001C3.90693 1.03587 4.07799 0.925326 4.26703 0.856661C4.45607 0.787996 4.65819 0.762988 4.85827 0.783509C5.05835 0.804029 5.25119 0.869547 5.42235 0.975156C5.59352 1.08077 5.73858 1.22373 5.84666 1.39334L8.95333 6.00001C9.00692 6.07235 9.03584 6.15999 9.03584 6.25001C9.03584 6.34003 9.00692 6.42767 8.95333 6.50001L6.90666 8.96001C7.61705 10.7806 8.72382 12.4203 10.1467 13.76V13.76Z" />
    </symbol>

</svg>