<svg width="21" height="22" viewBox="0 0 21 22" fill="none" xmlns="http://www.w3.org/2000/svg">
<path d="M10.5 0.587036C4.6996 0.587036 0 5.28663 0 11.087C0 16.8874 4.6996 21.587 10.5 21.587C16.3004 21.587 21 16.8874 21 11.087C21 5.28663 16.3004 0.587036 10.5 0.587036ZM14.4159 13.8391L13.5691 14.8975C13.5136 14.967 13.4449 15.0248 13.3669 15.0678C13.289 15.1107 13.2034 15.1378 13.115 15.1477C13.0265 15.1575 12.937 15.1498 12.8516 15.125C12.7661 15.1003 12.6864 15.0589 12.6169 15.0034L9.78024 12.8983C9.58204 12.7396 9.42205 12.5384 9.31212 12.3095C9.20219 12.0806 9.14513 11.83 9.14516 11.576V4.99026C9.14516 4.8106 9.21653 4.6383 9.34357 4.51125C9.47061 4.38421 9.64292 4.31284 9.82258 4.31284H11.1774C11.3571 4.31284 11.5294 4.38421 11.6564 4.51125C11.7835 4.6383 11.8548 4.8106 11.8548 4.99026V11.087L14.3105 12.8864C14.38 12.942 14.4379 13.0108 14.4808 13.0888C14.5237 13.1668 14.5508 13.2524 14.5606 13.3409C14.5704 13.4294 14.5627 13.5189 14.5378 13.6044C14.513 13.6899 14.4716 13.7696 14.4159 13.8391Z" fill="#061428"/>
</svg>
