<svg width="16" height="16" viewBox="0 0 16 16" fill="none" xmlns="http://www.w3.org/2000/svg">
<path d="M0.318181 1.85455C-0.10606 1.4303 -0.106061 0.742447 0.318181 0.318192C0.742423 -0.106062 1.43026 -0.106062 1.8545 0.318193L15.6813 14.1454C16.1056 14.5697 16.1056 15.2576 15.6813 15.6818C15.2571 16.1061 14.5693 16.1061 14.145 15.6818L0.318181 1.85455Z" fill="#8A8A8A"/>
<path d="M14.1455 0.318191C14.5697 -0.106064 15.2576 -0.106064 15.6818 0.318191C16.1061 0.742445 16.1061 1.4303 15.6818 1.85455L1.85498 15.6818C1.43074 16.1061 0.742904 16.1061 0.318662 15.6818C-0.10558 15.2576 -0.10558 14.5697 0.318662 14.1454L14.1455 0.318191Z" fill="#8A8A8A"/>
</svg>
