<svg width="24" height="24" viewBox="0 0 24 24" xmlns="http://www.w3.org/2000/svg">
<circle cx="12" cy="12" r="12" fill="#5700D8"/>
<g clip-path="url(#clip0_310_97)">
<path d="M17.0371 13.8766C16.3024 13.8766 15.5811 13.7617 14.8975 13.5358C14.5625 13.4216 14.1507 13.5264 13.9463 13.7363L12.597 14.7549C11.0322 13.9196 10.0683 12.9561 9.24447 11.403L10.2331 10.0889C10.4899 9.83241 10.582 9.45772 10.4717 9.10616C10.2448 8.41897 10.1295 7.69794 10.1295 6.96294C10.1296 6.43197 9.69759 6 9.16666 6H6.96291C6.43197 6 6 6.43197 6 6.96291C6 13.0488 10.9512 18 17.0371 18C17.5681 18 18 17.568 18 17.0371V14.8395C18 14.3086 17.568 13.8766 17.0371 13.8766Z" fill="white"/>
</g>
<defs>
<clipPath id="clip0_310_97">
<rect width="12" height="12" fill="white" transform="translate(6 6)"/>
</clipPath>
</defs>
</svg>
