<svg width="204" height="48" fill="none" xmlns="http://www.w3.org/2000/svg"><path d="M62.262 22.67c.296 1.903.894 3.242 1.793 4.014.91.761 2.21 1.142 3.903 1.142 1.83 0 3.274-.714 4.332-2.142 1.068-1.428 1.613-3.411 1.634-5.95h-9.092v-2.507h9.092c0-2.507-.55-4.49-1.65-5.95-1.09-1.46-2.618-2.19-4.585-2.19-1.587 0-2.825.413-3.713 1.238-.878.825-1.45 2.158-1.714 3.998H59.2c.243-2.422 1.105-4.315 2.586-5.68 1.48-1.375 3.448-2.063 5.903-2.063 1.861 0 3.496.445 4.902 1.333 1.418.878 2.502 2.137 3.253 3.777.762 1.629 1.143 3.506 1.143 5.632v2.301c0 2.126-.376 4.004-1.127 5.633-.751 1.629-1.814 2.882-3.19 3.76-1.364.868-2.935 1.301-4.712 1.301-2.517 0-4.538-.66-6.061-1.983-1.513-1.333-2.412-3.221-2.697-5.665h3.062zm25.18-3.047h-2.808V30h-3.046V6.898h3.046v10.186h2.38l8.077-10.186h3.792L90.061 18.1 99.533 30h-3.728l-8.362-10.377zm31.37 3.046c-.286 2.444-1.19 4.332-2.713 5.665-1.513 1.322-3.528 1.983-6.046 1.983-2.729 0-4.918-.978-6.569-2.935-1.639-1.957-2.459-4.575-2.459-7.854v-2.222c0-2.147.381-4.035 1.142-5.664.773-1.63 1.862-2.877 3.269-3.745 1.407-.878 3.036-1.317 4.887-1.317 2.454 0 4.422.688 5.903 2.063 1.48 1.365 2.343 3.258 2.586 5.68h-3.062c-.265-1.84-.841-3.173-1.73-3.998-.878-.825-2.11-1.238-3.697-1.238-1.946 0-3.475.72-4.586 2.158-1.1 1.439-1.65 3.486-1.65 6.14v2.238c0 2.507.524 4.5 1.571 5.982 1.047 1.48 2.512 2.221 4.395 2.221 1.693 0 2.989-.38 3.888-1.142.909-.772 1.512-2.11 1.809-4.015h3.062zM140.629 30h-3.062V9.405h-11.393V30h-3.046V6.898h17.501V30zm18.612-10.678h-10.012v8.187h11.63V30h-14.677V6.898h14.519v2.507h-11.472v7.425h10.012v2.492zm8.457 1.634V30h-3.046V6.898h8.52c2.528 0 4.506.645 5.934 1.935 1.439 1.291 2.158 3 2.158 5.126 0 2.242-.703 3.971-2.11 5.188-1.396 1.206-3.401 1.809-6.014 1.809h-5.442zm0-2.491h5.474c1.629 0 2.877-.381 3.745-1.143.867-.772 1.301-1.883 1.301-3.332 0-1.375-.434-2.475-1.301-3.3-.868-.825-2.058-1.254-3.57-1.285h-5.649v9.06zm33.416-9.06h-7.426V30h-3.03V9.405h-7.41V6.898h17.866v2.507zM62.45 41.02h-.93v3.437h-1.01v-7.653h1.01v3.375h.788l2.676-3.375h1.256l-2.922 3.711 3.138 3.942H65.22l-2.77-3.437zm4.373.541c0-.557.109-1.058.326-1.503.221-.445.526-.788.915-1.03.392-.242.84-.363 1.34-.363.775 0 1.4.268 1.877.804.48.536.72 1.25.72 2.14v.068c0 .553-.107 1.051-.32 1.492-.211.439-.514.78-.91 1.026a2.505 2.505 0 01-1.356.367c-.771 0-1.397-.268-1.877-.804-.476-.536-.715-1.245-.715-2.129v-.068zm.978.116c0 .63.145 1.137.436 1.519.295.382.687.573 1.178.573.494 0 .886-.193 1.177-.578.29-.39.436-.933.436-1.63 0-.624-.149-1.128-.446-1.514a1.403 1.403 0 00-1.178-.583c-.48 0-.867.19-1.161.573-.295.382-.442.928-.442 1.64zm10.066 2.78h-.973V42.03h-2.612v2.428h-.978V38.77h.978v2.465h2.612V38.77h.973v5.687zm3.847-.688a1.4 1.4 0 00.91-.316c.259-.21.402-.473.43-.788h.92c-.017.326-.13.636-.336.93a2.21 2.21 0 01-.83.705 2.373 2.373 0 01-1.094.262c-.774 0-1.391-.257-1.85-.772-.456-.519-.683-1.227-.683-2.124v-.163c0-.553.101-1.046.305-1.477.203-.43.493-.765.872-1.004.382-.238.832-.357 1.35-.357.639 0 1.168.191 1.588.573.424.382.65.878.678 1.487h-.92a1.325 1.325 0 00-.42-.904 1.286 1.286 0 00-.925-.357c-.494 0-.878.179-1.151.536-.27.354-.405.867-.405 1.54v.184c0 .655.135 1.16.405 1.514.27.354.655.53 1.156.53zm6.865.688c-.056-.112-.102-.312-.137-.599-.452.47-.992.704-1.619.704-.56 0-1.021-.157-1.382-.473a1.55 1.55 0 01-.537-1.209c0-.592.225-1.05.673-1.377.452-.33 1.087-.494 1.903-.494h.946v-.447c0-.34-.102-.61-.305-.809-.203-.203-.502-.305-.898-.305-.347 0-.638.088-.873.263-.235.175-.352.387-.352.636h-.978c0-.284.1-.557.3-.82.203-.266.476-.477.82-.63a2.776 2.776 0 011.14-.232c.656 0 1.169.165 1.54.494.372.326.565.776.579 1.35v2.618c0 .523.066.938.2 1.246v.084h-1.02zm-1.614-.74c.305 0 .594-.08.867-.237.274-.158.472-.363.594-.615v-1.167h-.762c-1.191 0-1.787.349-1.787 1.046 0 .305.102.543.305.715.203.171.464.257.783.257zm8.62-4.947v5.687h-.978v-4.883h-1.934l-.115 2.13c-.064.977-.228 1.676-.495 2.096-.262.42-.681.64-1.256.657h-.389V43.6l.279-.02c.315-.035.541-.218.678-.547.136-.33.224-.94.263-1.83l.105-2.433h3.842zm5.787.789h-1.908v4.898h-.972V39.56H96.62v-.789h4.751v.789zm4.625-.789h.973v5.687h-.973V40.31l-2.622 4.147h-.973V38.77h.973v4.152l2.622-4.152zm7.18 5.687h-.972V42.03h-2.612v2.428h-.978V38.77h.978v2.465h2.612V38.77h.972v5.687zm5.241-4.883h-2.623v4.883h-.978V38.77h3.601v.804zm.483 1.987c0-.557.109-1.058.326-1.503.221-.445.526-.788.915-1.03a2.5 2.5 0 011.34-.363c.774 0 1.4.268 1.876.804.481.536.721 1.25.721 2.14v.068c0 .553-.107 1.051-.321 1.492-.21.439-.513.78-.909 1.026a2.507 2.507 0 01-1.356.367c-.771 0-1.397-.268-1.877-.804-.476-.536-.715-1.245-.715-2.129v-.068zm.978.116c0 .63.145 1.137.436 1.519.295.382.687.573 1.178.573.494 0 .886-.193 1.177-.578.291-.39.436-.933.436-1.63 0-.624-.149-1.128-.447-1.514a1.401 1.401 0 00-1.177-.583c-.48 0-.867.19-1.162.573-.294.382-.441.928-.441 1.64zm5.508 2.78V38.77h2.218c.757 0 1.337.133 1.74.4.407.262.61.65.61 1.161 0 .263-.079.501-.237.715-.157.21-.39.371-.699.484.344.08.619.238.826.473.21.234.315.515.315.84 0 .523-.193.922-.578 1.199-.382.277-.924.415-1.624.415h-2.571zm.973-2.496v1.713h1.608c.407 0 .71-.075.909-.226.204-.15.305-.363.305-.636 0-.568-.417-.851-1.251-.851h-1.571zm0-.778h1.256c.911 0 1.367-.267 1.367-.8 0-.532-.431-.807-1.293-.824h-1.33v1.624zm8.599 3.274c-.056-.112-.102-.312-.137-.599-.452.47-.992.704-1.619.704-.56 0-1.021-.157-1.382-.473a1.548 1.548 0 01-.536-1.209c0-.592.224-1.05.673-1.377.452-.33 1.086-.494 1.902-.494h.946v-.447c0-.34-.101-.61-.304-.809-.204-.203-.503-.305-.899-.305-.347 0-.638.088-.873.263-.235.175-.352.387-.352.636h-.978c0-.284.1-.557.3-.82.203-.266.477-.477.82-.63a2.777 2.777 0 011.141-.232c.655 0 1.168.165 1.54.494.371.326.564.776.578 1.35v2.618c0 .523.066.938.199 1.246v.084h-1.019zm-1.614-.74c.305 0 .594-.08.867-.237.274-.158.472-.363.594-.615v-1.167h-.762c-1.191 0-1.787.349-1.787 1.046 0 .305.102.543.305.715.203.171.464.257.783.257zm8.305-4.947v5.687h-.978v-2.213h-1.466l-1.341 2.213h-1.051l1.43-2.36c-.365-.133-.645-.338-.841-.615a1.681 1.681 0 01-.289-.977c0-.519.194-.936.583-1.251.389-.32.91-.48 1.561-.484h2.392zm-3.559 1.745c0 .277.095.501.284.673.19.168.44.254.752.258h1.545v-1.887h-1.398c-.361 0-.648.089-.862.268a.847.847 0 00-.321.688zm9.561 1.52h-.709v2.422h-.978V38.77h.978v2.407h.636l1.913-2.407h1.177l-2.249 2.733 2.439 2.954h-1.236l-1.971-2.423zm3.669-.474c0-.557.109-1.058.326-1.503.221-.445.526-.788.915-1.03a2.5 2.5 0 011.34-.363c.774 0 1.4.268 1.876.804.48.536.72 1.25.72 2.14v.068c0 .553-.106 1.051-.32 1.492-.21.439-.513.78-.909 1.026a2.508 2.508 0 01-1.357.367c-.77 0-1.396-.268-1.876-.804-.477-.536-.715-1.245-.715-2.129v-.068zm.978.116c0 .63.145 1.137.436 1.519.294.382.687.573 1.177.573.495 0 .887-.193 1.178-.578.291-.39.436-.933.436-1.63 0-.624-.149-1.128-.447-1.514a1.401 1.401 0 00-1.177-.583c-.48 0-.867.19-1.162.573-.294.382-.441.928-.441 1.64zm8.693 1.492l1.935-4.399h1.214v5.687h-.972v-4.136l-1.84 4.136h-.673l-1.876-4.226v4.226h-.973V38.77h1.262l1.923 4.4zm9.367 1.288h-.972v-4.883h-2.618v4.883h-.978V38.77h4.568v5.687zm5.072 0c-.056-.112-.102-.312-.137-.599-.452.47-.991.704-1.618.704-.561 0-1.022-.157-1.383-.473a1.551 1.551 0 01-.536-1.209c0-.592.224-1.05.673-1.377.452-.33 1.086-.494 1.903-.494h.946v-.447c0-.34-.102-.61-.305-.809-.203-.203-.503-.305-.899-.305-.347 0-.638.088-.873.263-.234.175-.352.387-.352.636h-.977c0-.284.1-.557.299-.82.204-.266.477-.477.82-.63a2.777 2.777 0 011.141-.232c.655 0 1.168.165 1.54.494.371.326.564.776.578 1.35v2.618c0 .523.067.938.2 1.246v.084h-1.02zm-1.614-.74c.305 0 .594-.08.868-.237.273-.158.471-.363.594-.615v-1.167h-.762c-1.192 0-1.788.349-1.788 1.046 0 .305.102.543.305.715.204.171.465.257.783.257zm8.605.74h-.973V42.03h-2.612v2.428h-.978V38.77h.978v2.465h2.612V38.77h.973v5.687zm5.245-5.687h.973v5.687h-.973V40.31l-2.622 4.147h-.973V38.77h.973v4.152l2.622-4.152zm6.881 0v5.687h-.978v-2.213h-1.466l-1.341 2.213h-1.051l1.43-2.36c-.365-.133-.645-.338-.841-.615a1.681 1.681 0 01-.289-.977c0-.519.194-.936.583-1.251.389-.32.909-.48 1.561-.484h2.392zm-3.559 1.745c0 .277.095.501.284.673.189.168.44.254.752.258h1.545v-1.887h-1.398c-.361 0-.648.089-.862.268a.847.847 0 00-.321.688z" fill="#fff" fill-opacity=".9"/><path fill-rule="evenodd" clip-rule="evenodd" d="M24 47c12.703 0 23-10.521 23-23.5S36.703 0 24 0C13.151 0 4.057 7.675 1.634 18h3.282C7.464 9.886 15.045 4 24 4c11.046 0 20 8.954 20 20s-8.954 20-20 20c-8.955 0-16.536-5.886-19.084-14H1.89c2.76 9.817 11.614 17 22.11 17z" fill="#FFA620"/><path fill="#FFA620" d="M1 22h22v4H1z"/></svg>