<?xml version="1.0" encoding="utf-8"?><svg viewBox="0 0 50 50" xmlns="http://www.w3.org/2000/svg" xmlns:xlink="http://www.w3.org/1999/xlink"><style>:root>svg{display:none}:root>svg:target{display:block}</style><svg fill="none" viewBox="0 0 42 42" id="arrow-next" xmlns="http://www.w3.org/2000/svg"><path fill-rule="evenodd" clip-rule="evenodd" d="M24.131 41.826c2.206-.358 3.976-.93 6.107-1.974 13.015-6.375 15.807-23.678 5.46-33.838-2.331-2.29-4.979-3.91-8.065-4.937C19.418-1.656 10.363.924 4.88 7.559 1.66 11.455.003 16.025 0 21.006c-.006 10 6.918 18.505 16.78 20.613 1.902.406 5.497.508 7.351.207zm-6.166-12.97c-.347-.314-.609-.69-.609-.875 0-.218 1.075-1.4 3.309-3.638l3.308-3.314-3.308-3.325c-2.187-2.197-3.309-3.431-3.309-3.641 0-.324 1.075-1.42 1.394-1.42.305 0 8.198 8.02 8.198 8.33 0 .266-8.005 8.435-8.266 8.435-.059 0-.381-.248-.716-.552z" fill="#061428"/></svg><svg fill="none" viewBox="0 0 42 42" id="arrow-prev" xmlns="http://www.w3.org/2000/svg"><path fill-rule="evenodd" clip-rule="evenodd" d="M17.869.174c-2.206.358-3.976.93-6.107 1.974-13.015 6.375-15.807 23.678-5.46 33.838 2.331 2.29 4.979 3.91 8.065 4.937 8.215 2.733 17.27.154 22.753-6.482 3.219-3.896 4.877-8.466 4.88-13.447.006-10-6.918-18.505-16.78-20.613-1.902-.406-5.497-.507-7.351-.207zm6.166 12.97c.347.314.609.69.609.875 0 .218-1.075 1.4-3.309 3.638l-3.308 3.314 3.308 3.325c2.187 2.197 3.309 3.431 3.309 3.641 0 .324-1.075 1.42-1.394 1.42-.305 0-8.198-8.02-8.198-8.33 0-.266 8.005-8.435 8.266-8.435.059 0 .381.248.716.551z" fill="#061428"/></svg><svg viewBox="0 0 50 50" id="telegram" xmlns="http://www.w3.org/2000/svg"><path d="M40.734 6.244a4.647 4.647 0 00-1.457.348h-.007c-.445.177-2.562 1.067-5.78 2.417l-11.535 4.858c-8.277 3.485-16.413 6.916-16.413 6.916l.097-.038s-.56.185-1.147.586c-.362.23-.673.532-.915.886-.288.422-.52 1.067-.433 1.735.14 1.128.872 1.804 1.397 2.178.53.378 1.037.554 1.037.554h.013l7.63 2.57c.341 1.1 2.324 7.618 2.8 9.12.282.896.556 1.457.898 1.885.165.22.36.402.592.549.121.07.25.126.384.165l-.078-.018c.024.006.042.025.06.03.062.018.104.024.184.037 1.208.366 2.178-.384 2.178-.384l.055-.044 4.505-4.102 7.55 5.792.171.074c1.574.69 3.167.306 4.01-.372.848-.683 1.178-1.556 1.178-1.556l.055-.141L43.597 10.4c.166-.738.208-1.428.025-2.098a2.823 2.823 0 00-1.22-1.636 2.925 2.925 0 00-1.668-.422zm-.157 3.203c-.007.098.012.087-.032.276v.018l-5.78 29.578c-.024.042-.066.134-.182.226-.122.097-.219.158-.727-.044l-9.234-7.08-5.578 5.085 1.172-7.484 15.087-14.063c.622-.578.414-.7.414-.7.044-.709-.939-.207-.939-.207L15.753 26.837l-.006-.03-9.119-3.071v-.006l-.023-.005a.417.417 0 00.047-.019l.05-.025.048-.017s8.142-3.431 16.419-6.916c4.143-1.745 8.319-3.503 11.53-4.859a1262.61 1262.61 0 015.718-2.39c.128-.05.067-.05.16-.05v-.002z"/></svg><svg viewBox="0 0 50 50" id="viber" xmlns="http://www.w3.org/2000/svg"><path d="M23.747.008c-4.013.048-12.64.708-17.464 5.134-3.59 3.556-4.842 8.814-4.99 15.316-.121 6.478-.268 18.644 11.459 21.956v5.045s-.074 2.02 1.26 2.433c1.644.52 2.58-1.033 4.143-2.701l2.914-3.296c8.023.667 14.168-.87 14.876-1.098 1.628-.52 10.799-1.692 12.297-13.86 1.538-12.565-.748-20.482-4.875-24.064h-.025C42.097 3.727 37.092.08 25.911.04c0 0-.83-.056-2.164-.033v.002zm.137 3.533c1.14-.008 1.832.04 1.832.04 9.464.025 13.98 2.874 15.047 3.833 3.474 2.978 5.265 10.116 3.954 20.606-1.245 10.172-8.683 10.816-10.06 11.255-.585.188-5.998 1.522-12.816 1.083 0 0-5.079 6.128-6.666 7.706-.252.277-.545.358-.733.317-.268-.065-.35-.398-.334-.855l.048-8.373c-9.945-2.75-9.36-13.127-9.253-18.547.122-5.42 1.14-9.855 4.167-12.858 4.077-3.686 11.402-4.182 14.811-4.207h.003zm.75 5.418a.62.62 0 00-.626.62c0 .35.284.626.626.626a11.741 11.741 0 018.399 3.312c2.27 2.205 3.376 5.167 3.419 9.04 0 .343.276.627.626.627v-.025a.625.625 0 00.627-.618 13.46 13.46 0 00-3.777-9.92c-2.473-2.418-5.608-3.663-9.294-3.663v.001zm-8.236 1.433a1.957 1.957 0 00-1.278.252h-.032a9.81 9.81 0 00-2.385 1.96c-.57.66-.88 1.327-.96 1.97-.05.382-.016.765.098 1.13l.04.026a28.164 28.164 0 002.506 5.412 31.842 31.842 0 004.835 6.608l.056.081.09.066.056.066.065.056a32.293 32.293 0 006.625 4.858c2.75 1.496 4.419 2.204 5.42 2.498v.016c.294.089.561.13.83.13a3.832 3.832 0 002.295-.985 9.476 9.476 0 001.938-2.392v-.016c.48-.903.317-1.758-.375-2.336a28.857 28.857 0 00-4.477-3.214c-1.065-.578-2.148-.228-2.587.358l-.936 1.18c-.48.585-1.352.504-1.352.504l-.025.016c-6.501-1.661-8.236-8.244-8.236-8.244s-.08-.895.52-1.351l1.173-.944c.56-.456.951-1.538.35-2.605a28.108 28.108 0 00-3.207-4.476 1.781 1.781 0 00-1.05-.627l.003.003zm9.318 1.856c-.83 0-.83 1.254.008 1.254a7.852 7.852 0 015.517 2.392 7.281 7.281 0 011.871 5.354.63.63 0 00.627.62l.025.032a.632.632 0 00.627-.627c.056-2.482-.716-4.565-2.23-6.234-1.522-1.669-3.645-2.605-6.356-2.79h-.09zm1.026 3.37c-.855-.026-.887 1.252-.04 1.277 2.059.107 3.059 1.147 3.19 3.288a.622.622 0 00.619.61h.025a.63.63 0 00.601-.666c-.146-2.791-1.668-4.363-4.37-4.508h-.025v-.002z"/></svg><svg viewBox="0 0 50 50" id="whatsapp" xmlns="http://www.w3.org/2000/svg"><g clip-path="url(#eclip0_120_4)"><path fill-rule="evenodd" clip-rule="evenodd" d="M36.281 29.963c-.62-.31-3.664-1.807-4.231-2.015-.567-.206-.98-.308-1.394.313-.412.616-1.598 2.012-1.958 2.425-.363.414-.723.464-1.342.156-.619-.313-2.614-.965-4.979-3.073-1.84-1.642-3.083-3.669-3.444-4.29-.36-.619-.04-.954.271-1.262.28-.277.619-.723.93-1.084.31-.362.412-.62.618-1.035.208-.412.104-.773-.052-1.083-.154-.31-1.392-3.359-1.908-4.598-.502-1.207-1.013-1.042-1.392-1.063-.362-.016-.775-.02-1.188-.02-.412 0-1.083.154-1.65.774-.568.62-2.166 2.117-2.166 5.165 0 3.046 2.216 5.99 2.527 6.404.31.413 4.365 6.667 10.575 9.348a35.394 35.394 0 003.53 1.302c1.482.473 2.832.406 3.9.246 1.187-.177 3.662-1.498 4.178-2.944.515-1.446.515-2.685.36-2.943-.154-.259-.566-.413-1.187-.723h.002zM24.985 45.385h-.008c-3.689.001-7.31-.99-10.483-2.87l-.75-.446-7.796 2.046 2.081-7.6-.49-.78a20.544 20.544 0 01-3.147-10.958c.004-11.354 9.241-20.591 20.602-20.591 5.5 0 10.67 2.145 14.558 6.037a20.47 20.47 0 016.025 14.569c-.004 11.354-9.242 20.593-20.592 20.593zM42.51 7.267A24.615 24.615 0 0024.983 0C11.33 0 .213 11.115.208 24.775a24.716 24.716 0 003.307 12.386L0 50l13.133-3.447a24.752 24.752 0 0011.842 3.017h.01c13.655 0 24.771-11.115 24.775-24.777a24.628 24.628 0 00-7.25-17.527"/></g><defs><clipPath id="eclip0_120_4"><path fill="#fff" d="M0 0h50v50H0z"/></clipPath></defs></svg></svg>