<svg width="19" height="19" viewBox="0 0 19 19" fill="none" xmlns="http://www.w3.org/2000/svg">
<path d="M9.5 0.296875C4.41602 0.296875 0.296875 4.41602 0.296875 9.5C0.296875 14.584 4.41602 18.7031 9.5 18.7031C14.584 18.7031 18.7031 14.584 18.7031 9.5C18.7031 4.41602 14.584 0.296875 9.5 0.296875ZM12.9322 11.9121L12.1901 12.8398C12.1414 12.9007 12.0811 12.9514 12.0128 12.9891C11.9445 13.0267 11.8695 13.0505 11.792 13.0591C11.7145 13.0677 11.636 13.061 11.5611 13.0393C11.4862 13.0176 11.4164 12.9813 11.3555 12.9326L8.86914 11.0875C8.69542 10.9484 8.55519 10.7721 8.45884 10.5715C8.36248 10.3709 8.31247 10.1512 8.3125 9.92861V4.15625C8.3125 3.99878 8.37506 3.84776 8.48641 3.73641C8.59776 3.62506 8.74878 3.5625 8.90625 3.5625H10.0938C10.2512 3.5625 10.4022 3.62506 10.5136 3.73641C10.6249 3.84776 10.6875 3.99878 10.6875 4.15625V9.5L12.8398 11.0771C12.9008 11.1259 12.9515 11.1861 12.9891 11.2545C13.0267 11.3228 13.0505 11.3979 13.0591 11.4755C13.0677 11.553 13.0609 11.6315 13.0391 11.7064C13.0174 11.7813 12.981 11.8512 12.9322 11.9121Z" fill="white"/>
</svg>
